# xmcd CD database file
#
# Track frame offsets:
#	150
#	21022
#	41037
#	76907
#	99395
#	111617
#	123582
#	142187
#	156730
#	170470
#	204427
#	223010
#	234792
#	258900
#
# Disc length: 4061 seconds
#
# Revision: 0
# Processed by: cddbd v1.5.2PL0 Copyright (c) Steve Scherf et al.
# Submitted via: CDex 1.50Beta7
#
DISCID=c70fdb0e
DTITLE=Eddie Condon -  Eddie Condon - The Town Hall Concerts, Volume 12 
DYEAR=2002
DGENRE=Jazz
TTITLE0=The Darktown Strutters' Ball
TTITLE1=Dear Old Southland
TTITLE2=Ja Da 
TTITLE3=Muskrat Ramble 
TTITLE4=St. Louis Blues 
TTITLE5=Honeysuckle Rose 
TTITLE6=She's Funny That Way
TTITLE7=It's Been So Long
TTITLE8=Nobody Knows (And Nobody Seems To Care) 
TTITLE9=Uncle Sam Blues 
TTITLE10=Serenade In Thirds
TTITLE11=A Bushkin Tone
TTITLE12=China Boy
TTITLE13=Impromtu Ensemble 
EXTD=YEAR: 2002
EXTT0=
EXTT1=
EXTT2=
EXTT3=
EXTT4=
EXTT5=
EXTT6=
EXTT7=
EXTT8=
EXTT9=
EXTT10=
EXTT11=
EXTT12=
EXTT13=
PLAYORDER=
